<?xml version="1.0" encoding="utf-8"?>
<!-- Generator: Adobe Illustrator 26.3.1, SVG Export Plug-In . SVG Version: 6.00 Build 0)  -->
<svg version="1.1" id="Calque_1" xmlns="http://www.w3.org/2000/svg" xmlns:xlink="http://www.w3.org/1999/xlink" x="0px" y="0px"
	 viewBox="0 0 272.13 249.45" style="enable-background:new 0 0 272.13 249.45;" xml:space="preserve">
<style type="text/css">
	.st0{fill:#FF680A;}
</style>
<g>
	<rect x="136.06" y="22.68" class="st0" width="22.68" height="22.68"/>
	<rect x="113.39" y="45.35" class="st0" width="22.68" height="22.68"/>
	<rect x="90.71" y="68.03" class="st0" width="22.68" height="22.68"/>
	<rect x="68.03" y="90.71" class="st0" width="22.68" height="22.68"/>
	<rect x="45.35" y="113.39" class="st0" width="22.68" height="45.35"/>
	<polygon class="st0" points="226.77,136.06 226.77,113.39 204.09,113.39 204.09,68.03 181.42,68.03 181.42,45.35 158.74,45.35 
		158.74,90.71 136.06,90.71 136.06,113.38 158.74,113.38 158.74,136.06 136.06,136.06 136.06,113.39 113.39,113.39 113.39,136.06 
		90.71,136.06 90.71,158.74 68.03,158.74 68.03,181.42 45.35,181.42 45.35,158.74 22.68,158.74 22.68,226.77 249.45,226.77 
		249.45,136.06 	"/>
</g>
</svg>
